<?xml version="1.0" standalone="no"?>
<!DOCTYPE svg PUBLIC "-//W3C//DTD SVG 20010904//EN"
 "http://www.w3.org/TR/2001/REC-SVG-20010904/DTD/svg10.dtd">
<svg version="1.0" xmlns="http://www.w3.org/2000/svg"
 width="497.000000pt" height="497.000000pt" viewBox="0 0 497.000000 497.000000"
 preserveAspectRatio="xMidYMid meet">
<metadata>
Created by potrace 1.11, written by Peter Selinger 2001-2013
</metadata>
<g transform="translate(0.000000,497.000000) scale(0.100000,-0.100000)"
fill="#000000" stroke="none">
<path d="M4365 4052 c-2 -3 -15 -6 -27 -7 -13 -2 -36 -9 -53 -16 -16 -6 -36
-13 -44 -15 -8 -1 -17 -7 -20 -12 -3 -5 -21 -15 -38 -23 -18 -8 -33 -17 -33
-21 0 -5 -5 -8 -11 -8 -15 0 -129 -111 -129 -126 0 -5 -9 -20 -20 -31 -10 -12
-21 -32 -24 -45 -3 -13 -7 -32 -9 -43 -3 -11 -8 -40 -12 -65 -4 -25 -11 -53
-17 -62 -5 -11 -5 -18 0 -18 5 0 8 -11 7 -24 -3 -25 30 -98 46 -104 5 -2 9 -8
9 -14 0 -5 16 -26 35 -46 19 -20 35 -40 35 -44 0 -4 7 -5 15 -2 9 4 15 0 15
-9 0 -8 17 -22 38 -31 20 -9 44 -20 52 -25 17 -10 70 -33 85 -37 23 -6 80 -29
85 -34 3 -3 16 -7 30 -8 14 0 26 -6 28 -12 2 -5 11 -10 20 -10 10 0 25 -6 34
-13 16 -12 15 -15 -8 -42 -13 -15 -24 -31 -24 -35 0 -3 -24 -31 -52 -61 -29
-30 -64 -72 -78 -92 -14 -20 -33 -40 -42 -43 -10 -3 -18 -12 -18 -20 0 -8 -4
-14 -9 -14 -5 0 -12 -8 -15 -17 -5 -14 -81 -101 -147 -168 -6 -5 -18 -19 -27
-29 -9 -11 -27 -30 -39 -43 -12 -13 -19 -23 -15 -23 4 0 -6 -9 -23 -19 -16
-10 -60 -47 -96 -82 -72 -69 -114 -106 -149 -129 -12 -8 -36 -27 -54 -42 -17
-16 -48 -36 -68 -47 -21 -10 -35 -21 -32 -23 3 -3 -8 -6 -23 -6 -15 1 -44 -2
-64 -6 -38 -7 -104 -16 -129 -18 -8 0 -20 -5 -27 -10 -7 -5 -17 -7 -23 -3 -5
3 -10 2 -10 -2 0 -5 -9 -9 -20 -9 -11 0 -20 4 -20 9 0 32 -55 46 -107 26 -15
-6 -28 -9 -29 -7 0 2 -8 -3 -17 -11 -10 -7 -17 -10 -17 -6 0 4 -6 2 -14 -4
-11 -10 -16 -8 -21 8 -3 11 -2 29 4 39 6 11 8 21 6 24 -3 3 1 25 8 49 15 50
14 73 -4 95 -17 21 -57 10 -87 -24 -130 -145 -182 -179 -230 -148 -14 9 -15
100 0 151 4 17 11 44 14 60 6 33 7 35 18 82 13 57 -16 94 -57 72 -32 -18 -122
-218 -150 -334 -1 -5 -7 -17 -12 -25 -5 -8 -10 -21 -12 -29 -1 -8 -5 -17 -10
-20 -4 -3 -9 -12 -11 -19 -6 -31 -213 -206 -226 -191 -2 2 12 18 30 36 19 18
34 29 34 25 0 -4 8 8 16 25 9 18 20 30 25 27 5 -3 9 2 9 11 0 8 7 18 15 21 15
6 31 47 39 104 3 19 10 49 15 66 15 52 7 184 -14 224 -9 18 -23 39 -29 45 -6
7 -20 24 -31 40 -71 98 -166 191 -220 215 -60 25 -116 43 -122 37 -3 -3 -16
-2 -30 4 -13 5 -38 11 -56 14 -18 4 -48 9 -67 13 -19 4 -57 7 -84 7 l-48 -1
28 20 c16 12 37 29 46 39 10 9 18 15 18 12 0 -2 11 7 25 21 14 14 25 29 25 34
0 6 4 10 9 10 5 0 12 19 16 43 4 23 10 49 12 57 7 24 5 151 -2 205 -4 28 -6
65 -6 83 1 17 -3 40 -8 50 -5 9 -11 31 -14 48 -3 17 -13 46 -23 65 -10 19 -19
43 -21 54 -2 10 -7 22 -12 25 -4 3 -28 22 -53 43 -25 20 -52 37 -60 37 -8 0
-18 3 -22 7 -6 7 -20 11 -61 18 -11 2 -20 4 -20 5 0 1 -29 7 -62 13 -10 1 -22
5 -28 8 -34 18 -261 -8 -292 -33 -7 -6 -13 -8 -13 -4 0 8 -138 -63 -142 -73
-5 -13 -48 -24 -48 -12 0 14 -72 -7 -87 -25 -6 -9 -15 -16 -20 -16 -4 0 -24
-8 -43 -18 -46 -23 -162 -61 -168 -55 -3 3 -11 0 -19 -6 -7 -6 -13 -8 -13 -4
0 4 -7 2 -14 -5 -8 -6 -30 -14 -48 -16 -18 -3 -44 -7 -58 -10 -14 -2 -43 -7
-65 -10 -66 -10 -85 -21 -85 -48 0 -27 17 -45 51 -52 24 -4 159 24 254 53 28
9 57 17 65 17 9 1 21 5 28 10 6 4 12 5 12 1 0 -3 18 4 40 15 23 11 45 18 50
15 4 -3 15 2 23 10 23 22 26 19 17 -17 -5 -18 -7 -49 -5 -68 1 -19 -1 -43 -6
-52 -6 -11 -5 -19 2 -24 8 -4 7 -9 -2 -15 -11 -7 -11 -9 -1 -9 8 0 10 -5 6
-12 -4 -6 -11 -28 -15 -47 -27 -135 -42 -198 -51 -208 -6 -7 -5 -14 2 -18 7
-4 8 -11 1 -18 -5 -7 -12 -28 -15 -47 -3 -19 -11 -53 -16 -75 -6 -22 -12 -49
-14 -60 -2 -11 -8 -45 -15 -75 -18 -86 -25 -119 -48 -220 -9 -41 -16 -81 -16
-87 0 -7 -4 -13 -9 -13 -5 0 -7 -4 -4 -8 3 -5 -2 -37 -10 -73 -8 -35 -17 -79
-20 -98 -3 -19 -10 -44 -14 -57 -5 -12 -6 -25 -3 -28 4 -3 2 -6 -3 -6 -5 0
-10 -15 -10 -33 -1 -17 -4 -41 -7 -52 -3 -11 -9 -33 -13 -50 -4 -16 -16 -50
-26 -75 -11 -25 -22 -54 -24 -64 -5 -26 -14 -33 -49 -40 -131 -22 -348 -99
-367 -129 -4 -7 -8 -7 -8 -2 0 6 -7 -1 -14 -14 -22 -40 -2 -71 49 -77 6 0 28
-5 50 -9 56 -13 55 -12 58 -15 1 -1 17 -4 36 -7 55 -7 81 -21 81 -42 0 -17 16
-30 47 -37 6 -1 20 6 32 17 20 19 72 22 99 5 7 -4 45 -5 85 -1 40 3 104 8 142
11 73 6 98 8 180 18 93 11 160 22 160 26 0 1 11 3 25 4 14 1 41 6 60 9 19 4
49 9 65 12 17 2 41 6 55 9 14 3 36 8 50 12 14 3 30 6 35 7 6 2 16 6 23 10 6 5
12 6 12 3 0 -3 16 2 35 10 19 8 35 11 35 8 0 -4 6 -2 13 4 6 5 26 13 42 15 41
8 73 15 96 22 10 4 19 4 19 1 0 -3 -30 -14 -67 -26 -38 -11 -81 -27 -98 -34
-16 -8 -37 -16 -45 -18 -8 -2 -17 -6 -20 -10 -3 -4 -17 -9 -30 -12 -14 -2 -42
-11 -62 -20 -21 -9 -40 -16 -43 -16 -3 1 -13 -6 -21 -15 -9 -8 -24 -15 -34
-15 -10 0 -22 -5 -25 -10 -4 -6 -11 -8 -16 -5 -5 4 -9 2 -9 -3 0 -5 -6 -9 -12
-9 -23 -1 -42 -8 -56 -21 -7 -6 -21 -12 -31 -12 -9 0 -22 -5 -29 -12 -7 -7
-12 -8 -12 -4 0 5 -6 4 -12 -1 -12 -9 -44 -19 -73 -24 -5 0 -19 -6 -30 -12
-11 -6 -26 -12 -34 -13 -8 -2 -17 -8 -21 -14 -4 -7 -9 -11 -11 -10 -5 2 -38
-9 -64 -21 -11 -5 -31 -11 -44 -14 -12 -2 -29 -9 -35 -15 -7 -5 -16 -7 -19 -3
-4 3 -7 0 -7 -7 0 -7 -3 -10 -6 -7 -4 3 -16 0 -28 -8 -11 -8 -28 -15 -38 -15
-10 0 -18 -4 -18 -10 0 -5 -5 -10 -10 -10 -6 0 -53 -21 -105 -46 -52 -25 -96
-44 -99 -42 -2 2 -14 -6 -26 -17 -12 -11 -25 -20 -29 -19 -3 1 -23 -10 -43
-22 -21 -13 -48 -26 -60 -28 -13 -3 -25 -5 -28 -6 -3 -2 -8 -2 -12 -2 -3 1
-12 -5 -18 -13 -7 -8 -19 -15 -26 -15 -8 0 -14 -3 -14 -7 0 -7 -137 -78 -151
-78 -3 0 -13 -8 -22 -17 -10 -9 -26 -20 -37 -23 -21 -7 -37 -46 -25 -64 7 -13
102 -15 107 -3 3 9 35 28 108 63 25 12 47 25 50 28 10 13 81 51 96 51 18 0 73
28 92 46 7 8 20 14 28 14 8 0 14 5 14 11 0 5 5 7 10 4 6 -3 10 -1 10 5 0 7 6
10 14 7 8 -3 20 1 26 8 7 8 16 12 21 9 5 -3 9 -1 9 3 0 8 49 32 80 39 8 1 16
8 18 13 2 6 8 11 13 11 5 0 47 18 94 40 47 22 91 40 100 40 8 0 23 4 33 10 25
15 76 33 85 32 4 -1 7 3 7 8 0 6 9 10 20 10 11 0 20 5 20 11 0 5 4 8 9 4 5 -3
13 0 16 6 4 5 13 8 21 5 8 -3 14 -2 14 2 0 4 8 8 18 9 10 1 43 12 73 26 56 25
78 34 92 36 4 0 21 8 37 16 16 8 32 15 35 15 3 0 18 6 34 14 16 9 31 12 35 9
3 -4 6 -2 6 4 0 6 28 20 63 32 34 12 74 28 88 36 14 8 29 12 33 8 3 -3 6 0 6
7 0 7 3 11 6 8 3 -4 20 0 39 7 18 8 35 11 39 8 3 -4 6 -1 6 6 0 8 7 11 15 7 8
-3 15 -1 15 5 0 6 4 8 9 4 5 -3 12 -1 16 5 3 5 15 10 26 10 10 0 19 4 19 9 0
5 10 13 23 17 12 3 40 15 62 24 60 27 133 49 139 42 3 -3 6 0 6 7 0 7 5 9 10
6 6 -3 10 -1 10 6 0 7 3 9 7 6 3 -4 11 -3 17 2 19 16 138 61 147 56 4 -3 11 0
14 6 4 5 13 8 20 5 7 -2 16 -2 20 2 3 3 18 8 33 9 15 2 33 4 40 5 6 1 12 6 12
11 0 5 7 7 15 3 8 -3 15 -2 15 2 0 4 14 8 31 9 17 1 37 8 45 14 8 6 14 9 14 5
0 -4 14 0 30 9 17 9 30 13 30 9 0 -4 6 -2 13 4 10 8 53 21 92 27 6 1 12 3 15
4 7 3 28 9 64 16 16 3 37 10 47 16 10 5 22 9 26 8 4 -1 10 -1 13 1 3 1 16 3
30 6 14 2 50 12 80 21 30 9 64 17 76 18 12 1 29 5 38 8 9 4 34 0 54 -8 20 -9
42 -13 50 -10 8 3 25 -4 39 -15 14 -11 29 -17 34 -14 5 3 9 1 9 -5 0 -11 61
-3 75 10 5 5 17 9 27 9 10 0 18 4 18 8 0 5 6 9 13 9 6 0 45 21 84 47 82 53
134 74 207 82 61 8 51 6 151 29 44 9 86 22 93 28 7 5 15 7 18 4 3 -3 17 -1 31
4 14 5 42 12 62 15 20 3 44 10 54 15 9 5 17 7 17 4 0 -2 18 2 40 11 23 9 43
14 46 12 2 -3 35 3 72 14 37 11 78 21 92 24 14 3 50 11 81 19 30 8 64 16 75
18 10 2 26 7 34 10 8 3 22 5 30 5 8 0 51 12 95 27 44 15 85 28 90 29 34 7 84
38 111 69 54 62 62 89 62 213 1 105 -1 117 -29 174 -16 33 -29 62 -29 65 0 2
-33 37 -72 77 -51 52 -94 84 -140 107 -38 18 -68 37 -68 42 0 12 60 102 107
161 21 26 39 52 39 58 1 5 2 11 4 13 1 1 3 9 5 17 2 8 6 26 9 40 3 14 8 39 11
55 3 17 10 44 14 60 14 54 0 143 -30 187 -11 14 -19 29 -19 33 0 13 -82 128
-114 160 -37 38 -81 67 -104 70 -9 0 -33 5 -52 9 -19 4 -44 9 -55 11 -11 2
-20 4 -20 5 0 4 -56 5 -60 2z m97 -103 c69 -14 96 -27 134 -64 40 -39 75 -91
67 -99 -3 -3 -1 -6 5 -6 7 0 12 -5 12 -12 0 -6 7 -19 15 -28 22 -24 29 -56 28
-125 -2 -68 -6 -95 -17 -113 -4 -6 -5 -16 -2 -21 9 -14 -20 -74 -53 -109 -17
-17 -31 -39 -31 -47 0 -8 -5 -15 -11 -15 -5 0 -7 -4 -4 -10 3 -5 2 -10 -3 -10
-5 0 -17 -15 -27 -34 -24 -45 -41 -48 -100 -20 -27 13 -55 24 -62 24 -7 0 -13
5 -13 11 0 5 -4 8 -8 5 -4 -2 -21 1 -37 8 -17 8 -59 26 -95 41 -76 33 -170 95
-170 113 0 7 -7 15 -15 18 -8 4 -12 10 -9 15 3 5 1 9 -3 9 -5 0 -16 12 -24 28
-15 26 -16 58 -5 112 2 14 7 39 11 55 9 47 26 83 41 89 8 3 14 11 14 19 0 28
116 120 180 142 3 1 16 6 30 12 58 24 83 26 152 12z m-2888 -273 c21 -3 41 -8
45 -10 3 -2 24 -7 46 -10 22 -4 42 -11 43 -16 2 -6 10 -10 18 -10 16 0 64 -39
64 -52 0 -5 11 -26 25 -48 14 -22 23 -40 21 -40 -3 0 0 -15 6 -32 10 -35 13
-55 22 -183 3 -44 6 -82 7 -85 8 -30 -26 -169 -38 -157 -2 3 -17 -7 -31 -22
-44 -45 -155 -116 -212 -136 -3 -1 -22 -9 -43 -19 -48 -21 -68 -24 -192 -30
-125 -7 -204 -16 -211 -27 -2 -4 -11 -6 -18 -3 -7 3 -19 -2 -26 -11 -7 -8 -23
-15 -35 -15 -12 0 -39 -7 -59 -15 -20 -8 -36 -12 -36 -8 0 4 -7 -2 -15 -13
-14 -18 -14 -17 -5 10 6 16 9 35 6 43 -3 7 -2 13 2 13 4 0 9 14 10 31 1 18 6
37 9 43 4 6 8 17 9 26 2 15 10 56 19 100 3 14 8 36 11 50 3 14 7 32 9 40 2 8
4 15 5 15 1 0 3 9 4 20 2 11 6 34 10 50 3 17 9 40 11 53 3 12 7 32 10 45 3 12
8 46 10 75 3 30 7 57 10 62 3 5 1 11 -5 15 -6 3 -7 20 -4 38 4 18 6 44 5 59
-1 21 2 26 14 22 15 -6 85 34 85 49 0 4 6 7 14 7 8 0 22 7 30 16 9 8 20 12 26
9 5 -3 10 -1 10 4 0 6 8 11 18 11 10 0 22 4 28 9 5 6 20 12 34 15 14 2 35 8
47 13 24 9 127 9 187 -1z m3058 -616 c12 -11 28 -21 35 -21 7 -1 17 -2 22 -3
11 -1 54 -40 105 -96 51 -56 96 -157 96 -215 0 -65 -19 -136 -44 -164 -20 -22
-85 -57 -124 -66 -9 -3 -51 -14 -92 -26 -41 -11 -86 -23 -100 -26 -14 -2 -32
-7 -40 -10 -19 -7 -27 -9 -65 -16 -16 -3 -66 -14 -110 -25 -44 -11 -94 -23
-112 -25 -17 -3 -37 -8 -42 -12 -6 -3 -19 -8 -29 -10 -10 -2 -43 -10 -73 -19
-30 -9 -54 -16 -54 -15 0 4 -84 -15 -98 -23 -11 -5 -34 -12 -53 -14 -52 -6
-58 -8 -66 -19 -4 -5 -10 -7 -13 -4 -3 4 18 24 47 46 61 47 143 123 131 123
-4 0 10 12 31 26 36 25 116 99 116 108 0 2 15 19 33 38 97 101 145 156 162
186 11 17 27 34 35 37 9 3 26 22 38 43 12 20 44 59 72 87 27 27 50 55 50 62 0
7 3 13 8 13 4 0 18 16 31 36 21 31 29 35 53 30 16 -3 38 -15 50 -26z m-2719
-285 c22 -4 43 -8 127 -26 69 -15 140 -42 140 -53 1 -6 19 -24 40 -41 22 -16
42 -38 45 -48 4 -9 15 -22 26 -27 10 -6 19 -15 19 -21 0 -6 18 -31 40 -56 29
-34 40 -56 42 -82 4 -98 3 -127 -5 -139 -6 -7 -7 -15 -5 -18 10 -9 -22 -98
-41 -119 -89 -95 -122 -126 -163 -153 -26 -18 -51 -32 -57 -32 -6 0 -11 -4
-11 -9 0 -5 -21 -17 -47 -27 -27 -10 -50 -20 -53 -23 -3 -4 -12 -7 -20 -9 -35
-7 -129 -39 -200 -68 -24 -11 -48 -18 -52 -17 -4 2 -25 -4 -48 -12 -23 -8 -46
-12 -51 -9 -5 3 -9 0 -9 -6 0 -7 -6 -10 -12 -7 -7 2 -24 0 -37 -5 -51 -19
-166 -46 -173 -42 -4 3 -8 0 -8 -5 0 -6 -10 -10 -22 -10 -29 1 -76 -9 -100
-22 -10 -6 -18 -6 -18 0 0 5 -15 5 -39 0 -21 -5 -53 -10 -72 -13 -19 -2 -45
-7 -59 -10 -14 -4 -52 -8 -85 -11 -33 -2 -78 -6 -100 -9 -68 -9 -212 -14 -238
-9 -30 6 -29 20 5 93 23 49 39 61 88 66 14 1 25 3 25 4 0 1 11 4 25 6 14 3 41
9 60 14 55 15 112 24 153 24 20 0 37 3 37 6 0 3 12 7 28 8 15 1 38 5 52 8 14
3 39 7 55 10 52 7 125 47 132 72 12 47 -36 66 -95 37 -17 -9 -41 -18 -54 -20
-13 -3 -48 -10 -78 -16 -30 -6 -71 -13 -90 -15 -19 -1 -48 -6 -65 -9 -16 -3
-41 -8 -55 -11 -14 -3 -36 -8 -50 -11 -14 -3 -33 -6 -42 -7 -10 0 -18 -3 -18
-6 0 -4 -7 -7 -15 -7 -16 0 -11 41 8 65 5 6 7 12 3 12 -4 0 0 12 7 28 8 15 13
37 12 50 -1 12 2 22 6 22 4 0 6 9 4 20 -2 11 0 20 5 20 5 0 9 8 8 18 0 9 3 28
7 42 4 14 8 34 9 45 5 40 19 100 25 110 3 6 6 19 7 30 1 11 9 52 18 91 9 39
18 82 20 95 3 13 5 24 6 24 2 0 9 36 15 78 6 45 24 85 25 55 0 -11 11 -20 28
-24 15 -4 49 -12 76 -19 31 -7 64 -9 85 -4 19 4 39 6 43 3 4 -3 8 -2 8 3 0 4
11 9 25 9 14 1 33 5 43 9 9 4 24 9 32 11 41 7 144 35 154 41 6 4 17 9 24 10
30 7 47 12 47 13 0 4 89 20 131 24 17 2 35 6 40 8 5 3 47 6 93 7 47 1 87 4 89
6 3 2 9 2 14 -1 5 -3 19 -7 31 -9z m1034 -571 c-3 -3 -2 -17 3 -30 5 -13 6
-26 1 -28 -5 -3 -6 -17 -3 -31 2 -14 1 -25 -4 -24 -5 1 -16 0 -24 -4 -8 -3
-28 -8 -45 -11 -70 -14 -81 -17 -100 -25 -11 -5 -49 -15 -85 -22 -36 -6 -69
-15 -75 -18 -9 -5 -137 -51 -143 -51 -1 0 27 29 63 65 36 36 65 71 65 79 0 7
7 19 15 26 8 7 13 15 11 19 -3 4 -1 13 3 19 6 10 16 5 39 -16 17 -16 36 -29
44 -30 116 -12 169 3 210 58 12 17 24 30 27 30 2 0 2 -3 -2 -6z m-2383 -492
l-26 -49 -42 10 c-53 12 -107 36 -83 36 9 1 17 6 17 12 0 5 4 8 9 5 5 -3 25 1
45 9 20 9 41 13 46 10 6 -4 10 -2 10 2 0 5 11 10 25 11 l25 2 -26 -48z"/>
</g>
</svg>
